<?xml version="1.0"?>
<svg width="3095" height="765"
     xmlns="http://www.w3.org/2000/svg"
     shape-rendering="crispEdges">
<polygon points="1542,321 1651,251 1535,272" style="fill:rgb(225,253,252)"/>
<polygon points="1651,251 1614,199 1535,272" style="fill:rgb(218,253,253)"/>
<polygon points="1542,321 1730,346 1651,251" style="fill:rgb(229,253,252)"/>
<polygon points="1763,96 1623,92 1614,199" style="fill:rgb(202,251,253)"/>
<polygon points="1614,199 1422,205 1535,272" style="fill:rgb(212,253,253)"/>
<polygon points="1535,272 1376,299 1542,321" style="fill:rgb(228,253,252)"/>
<polygon points="1763,96 1614,199 1651,251" style="fill:rgb(210,253,253)"/>
<polygon points="1614,199 1623,92 1422,205" style="fill:rgb(204,252,253)"/>
<polygon points="1730,346 1801,307 1651,251" style="fill:rgb(230,253,252)"/>
<polygon points="1422,205 1376,299 1535,272" style="fill:rgb(219,253,253)"/>
<polygon points="1542,321 1597,531 1730,346" style="fill:rgb(242,253,252)"/>
<polygon points="1504,515 1597,531 1542,321" style="fill:rgb(245,253,252)"/>
<polygon points="1730,346 1858,472 1801,307" style="fill:rgb(243,253,252)"/>
<polygon points="1409,502 1504,515 1542,321" style="fill:rgb(245,253,252)"/>
<polygon points="1504,515 1563,537 1597,531" style="fill:rgb(176,213,209)"/>
<polygon points="1580,542 1628,538 1597,531" style="fill:rgb(118,159,148)"/>
<polygon points="1597,531 1698,520 1730,346" style="fill:rgb(248,253,252)"/>
<polygon points="1504,515 1504,536 1563,537" style="fill:rgb(162,197,193)"/>
<polygon points="1409,502 1496,519 1504,515" style="fill:rgb(211,238,244)"/>
<polygon points="1628,538 1698,520 1597,531" style="fill:rgb(197,226,225)"/>
<polygon points="1861,186 1763,96 1651,251" style="fill:rgb(211,253,253)"/>
<polygon points="1563,537 1580,542 1597,531" style="fill:rgb(123,160,145)"/>
<polygon points="1562,569 1580,542 1563,537" style="fill:rgb(64,112,108)"/>
<polygon points="1628,538 1661,537 1698,520" style="fill:rgb(155,191,186)"/>
<polygon points="1716,541 1661,537 1648,567" style="fill:rgb(70,119,114)"/>
<polygon points="1411,546 1504,536 1496,519" style="fill:rgb(146,182,175)"/>
<polygon points="1496,519 1504,536 1504,515" style="fill:rgb(170,205,207)"/>
<polygon points="1648,567 1661,537 1628,538" style="fill:rgb(73,121,116)"/>
<polygon points="1661,537 1716,541 1698,520" style="fill:rgb(106,144,141)"/>
<polygon points="1698,520 1858,472 1730,346" style="fill:rgb(247,252,251)"/>
<polygon points="2034,197 1861,186 2044,274" style="fill:rgb(221,253,253)"/>
<polygon points="1801,307 1861,186 1651,251" style="fill:rgb(223,253,253)"/>
<polygon points="1515,574 1562,569 1563,537" style="fill:rgb(56,98,102)"/>
<polygon points="1580,542 1648,567 1628,538" style="fill:rgb(68,117,113)"/>
<polygon points="1562,569 1648,567 1580,542" style="fill:rgb(53,101,102)"/>
<polygon points="2034,85 1753,49 1763,96" style="fill:rgb(199,250,253)"/>
<polygon points="1763,96 1753,49 1623,92" style="fill:rgb(197,248,253)"/>
<polygon points="1376,299 1409,502 1542,321" style="fill:rgb(243,253,252)"/>
<polygon points="1504,536 1515,574 1563,537" style="fill:rgb(71,115,110)"/>
<polygon points="1623,92 1345,136 1422,205" style="fill:rgb(200,250,253)"/>
<polygon points="1422,205 1289,240 1376,299" style="fill:rgb(240,253,252)"/>
<polygon points="1376,299 1355,476 1409,502" style="fill:rgb(240,253,253)"/>
<polygon points="1327,86 1345,136 1623,92" style="fill:rgb(196,247,253)"/>
<polygon points="1411,546 1515,574 1504,536" style="fill:rgb(70,109,105)"/>
<polygon points="1562,569 1661,607 1648,567" style="fill:rgb(54,71,79)"/>
<polygon points="1297,487 1355,476 1238,411" style="fill:rgb(180,216,210)"/>
<polygon points="1409,502 1411,546 1496,519" style="fill:rgb(167,201,201)"/>
<polygon points="1355,476 1366,493 1409,502" style="fill:rgb(198,230,234)"/>
<polygon points="1345,136 1289,240 1422,205" style="fill:rgb(207,252,253)"/>
<polygon points="1661,607 1730,572 1648,567" style="fill:rgb(54,71,78)"/>
<polygon points="1648,567 1730,572 1716,541" style="fill:rgb(64,109,109)"/>
<polygon points="1814,529 1858,472 1698,520" style="fill:rgb(125,154,145)"/>
<polygon points="1366,493 1411,546 1409,502" style="fill:rgb(160,195,195)"/>
<polygon points="1814,529 1698,520 1716,541" style="fill:rgb(108,143,134)"/>
<polygon points="1795,573 1814,529 1716,541" style="fill:rgb(78,123,119)"/>
<polygon points="1651,642 1661,607 1562,569" style="fill:rgb(49,57,69)"/>
<polygon points="2034,85 1756,0 1753,49" style="fill:rgb(196,246,253)"/>
<polygon points="1753,49 1756,0 1623,92" style="fill:rgb(192,245,253)"/>
<polygon points="1756,0 1327,86 1623,92" style="fill:rgb(191,245,253)"/>
<polygon points="1345,136 1168,152 1289,240" style="fill:rgb(201,250,253)"/>
<polygon points="1383,573 1546,626 1515,574" style="fill:rgb(50,58,68)"/>
<polygon points="1515,574 1546,626 1562,569" style="fill:rgb(49,61,70)"/>
<polygon points="1730,572 1795,573 1716,541" style="fill:rgb(66,111,111)"/>
<polygon points="1895,518 1888,490 1858,472" style="fill:rgb(125,153,135)"/>
<polygon points="1783,649 1795,573 1730,572" style="fill:rgb(52,66,75)"/>
<polygon points="1895,518 1858,472 1814,529" style="fill:rgb(126,156,137)"/>
<polygon points="1858,472 1956,449 1801,307" style="fill:rgb(245,253,252)"/>
<polygon points="1337,548 1383,573 1411,546" style="fill:rgb(70,99,97)"/>
<polygon points="1411,546 1383,573 1515,574" style="fill:rgb(58,79,81)"/>
<polygon points="1337,548 1411,546 1366,493" style="fill:rgb(148,184,182)"/>
<polygon points="1546,626 1651,642 1562,569" style="fill:rgb(45,53,66)"/>
<polygon points="1661,607 1783,649 1730,572" style="fill:rgb(48,60,71)"/>
<polygon points="1238,411 1355,476 1376,299" style="fill:rgb(235,253,252)"/>
<polygon points="1355,476 1297,487 1366,493" style="fill:rgb(173,208,203)"/>
<polygon points="1326,545 1337,548 1366,493" style="fill:rgb(159,190,179)"/>
<polygon points="1297,487 1326,545 1366,493" style="fill:rgb(161,197,192)"/>
<polygon points="1337,548 1254,572 1383,573" style="fill:rgb(59,77,79)"/>
<polygon points="1882,568 1895,518 1814,529" style="fill:rgb(84,126,118)"/>
<polygon points="1948,466 1956,449 1858,472" style="fill:rgb(152,177,164)"/>
<polygon points="1289,240 1238,411 1376,299" style="fill:rgb(241,253,252)"/>
<polygon points="1297,487 1257,532 1326,545" style="fill:rgb(165,199,187)"/>
<polygon points="1216,437 1238,411 1164,400" style="fill:rgb(166,206,198)"/>
<polygon points="1948,466 1858,472 1888,490" style="fill:rgb(123,152,140)"/>
<polygon points="1961,503 1948,466 1888,490" style="fill:rgb(94,122,127)"/>
<polygon points="1863,614 1882,568 1795,573" style="fill:rgb(52,78,82)"/>
<polygon points="1795,573 1882,568 1814,529" style="fill:rgb(70,117,113)"/>
<polygon points="1895,518 1961,503 1888,490" style="fill:rgb(121,153,135)"/>
<polygon points="1651,642 1783,649 1661,607" style="fill:rgb(44,56,65)"/>
<polygon points="1163,374 1238,411 1289,240" style="fill:rgb(223,252,252)"/>
<polygon points="1238,411 1216,437 1297,487" style="fill:rgb(173,209,197)"/>
<polygon points="1194,484 1257,532 1297,487" style="fill:rgb(145,185,184)"/>
<polygon points="1326,545 1254,572 1337,548" style="fill:rgb(74,107,107)"/>
<polygon points="1783,649 1863,614 1795,573" style="fill:rgb(49,63,71)"/>
<polygon points="1882,568 1961,503 1895,518" style="fill:rgb(77,118,116)"/>
<polygon points="1992,589 1961,503 1882,568" style="fill:rgb(59,108,109)"/>
<polygon points="1948,466 1999,445 1956,449" style="fill:rgb(120,152,141)"/>
<polygon points="1367,718 1591,715 1546,626" style="fill:rgb(36,50,59)"/>
<polygon points="1546,626 1591,715 1651,642" style="fill:rgb(35,50,60)"/>
<polygon points="1651,642 1591,715 1783,649" style="fill:rgb(32,50,58)"/>
<polygon points="1367,718 1546,626 1383,573" style="fill:rgb(38,59,64)"/>
<polygon points="1254,572 1261,551 1189,554" style="fill:rgb(83,113,107)"/>
<polygon points="1257,532 1261,551 1326,545" style="fill:rgb(168,190,170)"/>
<polygon points="1961,503 1999,445 1948,466" style="fill:rgb(86,117,123)"/>
<polygon points="2044,274 1861,186 1801,307" style="fill:rgb(226,253,252)"/>
<polygon points="1076,293 1163,374 1289,240" style="fill:rgb(215,253,253)"/>
<polygon points="1189,554 1261,551 1257,532" style="fill:rgb(156,179,162)"/>
<polygon points="2044,274 1801,307 1956,449" style="fill:rgb(240,253,252)"/>
<polygon points="1861,186 2034,85 1763,96" style="fill:rgb(205,252,253)"/>
<polygon points="1194,484 1297,487 1216,437" style="fill:rgb(160,198,190)"/>
<polygon points="1261,551 1254,572 1326,545" style="fill:rgb(79,112,110)"/>
<polygon points="2033,436 2021,429 1999,445" style="fill:rgb(127,167,158)"/>
<polygon points="1999,445 2021,429 1956,449" style="fill:rgb(148,192,189)"/>
<polygon points="2021,429 2044,274 1956,449" style="fill:rgb(245,253,252)"/>
<polygon points="1163,374 1164,400 1238,411" style="fill:rgb(166,204,204)"/>
<polygon points="1164,400 1194,484 1216,437" style="fill:rgb(156,193,189)"/>
<polygon points="1327,86 1168,152 1345,136" style="fill:rgb(196,247,253)"/>
<polygon points="2022,472 2033,436 1999,445" style="fill:rgb(92,126,125)"/>
<polygon points="2021,429 2096,404 2044,274" style="fill:rgb(244,253,252)"/>
<polygon points="2022,472 1999,445 1961,503" style="fill:rgb(94,129,124)"/>
<polygon points="2056,542 2022,472 1961,503" style="fill:rgb(77,109,113)"/>
<polygon points="2193,93 2034,85 2034,197" style="fill:rgb(214,253,253)"/>
<polygon points="2034,197 2034,85 1861,186" style="fill:rgb(213,253,253)"/>
<polygon points="1110,538 1189,554 1194,484" style="fill:rgb(149,182,173)"/>
<polygon points="1194,484 1189,554 1257,532" style="fill:rgb(161,193,181)"/>
<polygon points="1254,572 1367,718 1383,573" style="fill:rgb(41,68,67)"/>
<polygon points="1181,605 1367,718 1254,572" style="fill:rgb(34,68,65)"/>
<polygon points="1783,649 1886,690 1863,614" style="fill:rgb(41,57,64)"/>
<polygon points="1991,613 1992,589 1882,568" style="fill:rgb(59,101,99)"/>
<polygon points="1591,715 1886,690 1783,649" style="fill:rgb(31,51,61)"/>
<polygon points="1991,613 1882,568 1863,614" style="fill:rgb(55,76,79)"/>
<polygon points="2097,414 2096,404 2033,436" style="fill:rgb(121,163,152)"/>
<polygon points="1886,690 1991,613 1863,614" style="fill:rgb(47,60,68)"/>
<polygon points="2097,414 2033,436 2022,472" style="fill:rgb(93,126,124)"/>
<polygon points="2097,414 2022,472 2152,480" style="fill:rgb(99,131,120)"/>
<polygon points="2033,436 2096,404 2021,429" style="fill:rgb(144,186,186)"/>
<polygon points="2222,232 2193,93 2034,197" style="fill:rgb(218,253,253)"/>
<polygon points="2056,542 1961,503 1992,589" style="fill:rgb(57,106,107)"/>
<polygon points="1098,0 1123,82 1327,86" style="fill:rgb(188,241,253)"/>
<polygon points="1327,86 1123,82 1168,152" style="fill:rgb(193,245,253)"/>
<polygon points="1168,152 1076,293 1289,240" style="fill:rgb(206,252,253)"/>
<polygon points="1163,374 1006,353 1164,400" style="fill:rgb(167,201,216)"/>
<polygon points="1020,267 1076,293 1168,152" style="fill:rgb(206,252,253)"/>
<polygon points="1164,400 1113,489 1194,484" style="fill:rgb(146,187,184)"/>
<polygon points="2143,405 2110,396 2097,414" style="fill:rgb(102,139,138)"/>
<polygon points="2097,414 2110,396 2096,404" style="fill:rgb(133,168,177)"/>
<polygon points="2096,404 2110,396 2044,274" style="fill:rgb(243,253,252)"/>
<polygon points="1130,563 1181,605 1189,554" style="fill:rgb(53,65,69)"/>
<polygon points="1189,554 1181,605 1254,572" style="fill:rgb(60,82,77)"/>
<polygon points="2059,583 2056,542 1992,589" style="fill:rgb(58,110,105)"/>
<polygon points="1006,353 1113,489 1164,400" style="fill:rgb(144,179,185)"/>
<polygon points="1991,613 2037,603 1992,589" style="fill:rgb(61,88,91)"/>
<polygon points="2152,480 2143,405 2097,414" style="fill:rgb(87,124,117)"/>
<polygon points="2003,669 2037,603 1991,613" style="fill:rgb(49,60,70)"/>
<polygon points="1110,538 1130,563 1189,554" style="fill:rgb(83,109,100)"/>
<polygon points="2037,603 2059,583 1992,589" style="fill:rgb(37,83,95)"/>
<polygon points="1034,522 1110,538 1113,489" style="fill:rgb(148,187,176)"/>
<polygon points="1113,489 1110,538 1194,484" style="fill:rgb(136,178,178)"/>
<polygon points="1020,267 1044,305 1076,293" style="fill:rgb(230,253,252)"/>
<polygon points="1076,293 1044,305 1163,374" style="fill:rgb(221,253,253)"/>
<polygon points="1886,690 2003,669 1991,613" style="fill:rgb(40,59,63)"/>
<polygon points="2200,608 2180,562 2059,583" style="fill:rgb(50,96,95)"/>
<polygon points="2152,480 2022,472 2056,542" style="fill:rgb(81,117,114)"/>
<polygon points="2110,396 2172,368 2044,274" style="fill:rgb(242,253,252)"/>
<polygon points="2172,368 2164,377 2224,426" style="fill:rgb(89,134,122)"/>
<polygon points="2143,405 2164,377 2110,396" style="fill:rgb(110,149,150)"/>
<polygon points="1756,0 1098,0 1327,86" style="fill:rgb(186,240,253)"/>
<polygon points="982,208 1020,267 1168,152" style="fill:rgb(202,250,253)"/>
<polygon points="982,208 1168,152 1123,82" style="fill:rgb(196,246,253)"/>
<polygon points="1044,305 1006,353 1163,374" style="fill:rgb(217,253,253)"/>
<polygon points="2224,426 2164,377 2143,405" style="fill:rgb(95,133,122)"/>
<polygon points="2164,377 2172,368 2110,396" style="fill:rgb(137,207,212)"/>
<polygon points="2224,426 2152,480 2226,446" style="fill:rgb(48,103,107)"/>
<polygon points="2180,562 2152,480 2056,542" style="fill:rgb(34,89,104)"/>
<polygon points="1886,690 1953,765 2003,669" style="fill:rgb(32,52,60)"/>
<polygon points="2180,562 2056,542 2059,583" style="fill:rgb(59,111,108)"/>
<polygon points="1591,715 1953,765 1886,690" style="fill:rgb(47,53,63)"/>
<polygon points="1182,765 1953,765 1591,715" style="fill:rgb(50,53,64)"/>
<polygon points="954,315 1006,353 1044,305" style="fill:rgb(236,253,251)"/>
<polygon points="954,355 997,364 1006,353" style="fill:rgb(156,199,235)"/>
<polygon points="1006,353 997,364 1113,489" style="fill:rgb(140,174,186)"/>
<polygon points="1018,488 1034,522 1113,489" style="fill:rgb(126,172,174)"/>
<polygon points="1110,538 1006,547 1130,563" style="fill:rgb(56,81,87)"/>
<polygon points="1032,689 1182,765 1181,605" style="fill:rgb(35,68,65)"/>
<polygon points="1181,605 1182,765 1367,718" style="fill:rgb(33,63,65)"/>
<polygon points="997,364 1018,488 1113,489" style="fill:rgb(124,171,178)"/>
<polygon points="992,96 982,208 1123,82" style="fill:rgb(193,244,253)"/>
<polygon points="1020,267 954,315 1044,305" style="fill:rgb(251,252,252)"/>
<polygon points="2222,232 2034,197 2044,274" style="fill:rgb(225,253,252)"/>
<polygon points="2034,85 2224,45 1756,0" style="fill:rgb(197,248,253)"/>
<polygon points="2231,280 2044,274 2172,368" style="fill:rgb(247,252,252)"/>
<polygon points="2231,280 2222,232 2044,274" style="fill:rgb(234,253,253)"/>
<polygon points="1001,529 1034,522 1018,488" style="fill:rgb(145,186,173)"/>
<polygon points="1001,529 1016,535 1034,522" style="fill:rgb(150,175,153)"/>
<polygon points="1034,522 1016,535 1110,538" style="fill:rgb(143,173,156)"/>
<polygon points="1032,689 1181,605 1130,563" style="fill:rgb(42,63,65)"/>
<polygon points="1367,718 1182,765 1591,715" style="fill:rgb(39,57,65)"/>
<polygon points="2248,328 2231,280 2172,368" style="fill:rgb(242,252,252)"/>
<polygon points="1098,0 992,96 1123,82" style="fill:rgb(200,245,253)"/>
<polygon points="2059,583 2037,603 2200,608" style="fill:rgb(54,84,84)"/>
<polygon points="2152,480 2224,426 2143,405" style="fill:rgb(87,125,116)"/>
<polygon points="2200,608 2037,603 2003,669" style="fill:rgb(48,60,66)"/>
<polygon points="894,501 1001,529 1018,488" style="fill:rgb(131,175,172)"/>
<polygon points="1016,535 1006,547 1110,538" style="fill:rgb(98,126,112)"/>
<polygon points="948,383 1018,488 997,364" style="fill:rgb(121,170,180)"/>
<polygon points="917,269 1020,267 982,208" style="fill:rgb(210,252,253)"/>
<polygon points="917,269 954,315 1020,267" style="fill:rgb(246,252,252)"/>
<polygon points="1001,529 1006,547 1016,535" style="fill:rgb(104,132,115)"/>
<polygon points="1098,0 985,82 992,96" style="fill:rgb(223,250,253)"/>
<polygon points="992,96 910,97 982,208" style="fill:rgb(191,243,253)"/>
<polygon points="954,315 954,355 1006,353" style="fill:rgb(218,252,252)"/>
<polygon points="2180,562 2226,446 2152,480" style="fill:rgb(26,79,101)"/>
<polygon points="2251,343 2248,328 2172,368" style="fill:rgb(157,201,191)"/>
<polygon points="2251,343 2172,368 2260,375" style="fill:rgb(127,171,138)"/>
<polygon points="2231,280 2311,302 2222,232" style="fill:rgb(236,253,253)"/>
<polygon points="2335,97 2224,45 2193,93" style="fill:rgb(203,251,253)"/>
<polygon points="2260,375 2172,368 2224,426" style="fill:rgb(111,152,127)"/>
<polygon points="839,357 948,383 954,355" style="fill:rgb(127,170,194)"/>
<polygon points="954,355 948,383 997,364" style="fill:rgb(139,171,193)"/>
<polygon points="1024,724 1032,689 876,663" style="fill:rgb(27,60,60)"/>
<polygon points="2290,379 2224,426 2226,446" style="fill:rgb(56,115,112)"/>
<polygon points="2290,379 2260,375 2224,426" style="fill:rgb(95,143,120)"/>
<polygon points="2251,343 2311,302 2248,328" style="fill:rgb(163,196,181)"/>
<polygon points="2320,167 2193,93 2222,232" style="fill:rgb(214,253,253)"/>
<polygon points="2311,302 2231,280 2248,328" style="fill:rgb(237,251,251)"/>
<polygon points="2193,93 2224,45 2034,85" style="fill:rgb(203,251,253)"/>
<polygon points="866,265 917,269 849,196" style="fill:rgb(201,249,253)"/>
<polygon points="954,315 839,324 954,355" style="fill:rgb(228,253,252)"/>
<polygon points="1953,765 2200,608 2003,669" style="fill:rgb(35,60,64)"/>
<polygon points="2180,562 2284,543 2226,446" style="fill:rgb(10,58,91)"/>
<polygon points="969,0 943,71 985,82" style="fill:rgb(232,253,252)"/>
<polygon points="985,82 943,71 992,96" style="fill:rgb(209,248,253)"/>
<polygon points="1098,0 969,0 985,82" style="fill:rgb(239,252,252)"/>
<polygon points="1032,689 1006,547 876,663" style="fill:rgb(33,64,62)"/>
<polygon points="1006,547 1032,689 1130,563" style="fill:rgb(44,64,64)"/>
<polygon points="2318,366 2290,379 2356,387" style="fill:rgb(41,103,105)"/>
<polygon points="2260,375 2290,379 2251,343" style="fill:rgb(123,163,130)"/>
<polygon points="2324,330 2311,302 2251,343" style="fill:rgb(147,177,142)"/>
<polygon points="943,71 910,97 992,96" style="fill:rgb(199,244,253)"/>
<polygon points="899,0 910,97 943,71" style="fill:rgb(230,252,253)"/>
<polygon points="876,536 1006,547 1001,529" style="fill:rgb(94,120,102)"/>
<polygon points="1032,689 1024,724 1182,765" style="fill:rgb(28,62,63)"/>
<polygon points="894,501 1018,488 948,383" style="fill:rgb(116,166,174)"/>
<polygon points="2346,468 2290,379 2226,446" style="fill:rgb(25,86,103)"/>
<polygon points="2290,379 2324,330 2251,343" style="fill:rgb(130,167,131)"/>
<polygon points="2318,366 2324,330 2290,379" style="fill:rgb(102,153,124)"/>
<polygon points="2311,302 2320,167 2222,232" style="fill:rgb(224,253,252)"/>
<polygon points="2200,608 2284,543 2180,562" style="fill:rgb(51,102,102)"/>
<polygon points="849,196 917,269 982,208" style="fill:rgb(199,248,253)"/>
<polygon points="917,269 839,324 954,315" style="fill:rgb(244,253,253)"/>
<polygon points="2338,295 2320,167 2311,302" style="fill:rgb(223,250,250)"/>
<polygon points="806,409 894,501 948,383" style="fill:rgb(114,161,175)"/>
<polygon points="2366,329 2338,295 2324,330" style="fill:rgb(143,172,136)"/>
<polygon points="2324,330 2338,295 2311,302" style="fill:rgb(164,187,150)"/>
<polygon points="2366,329 2324,330 2318,366" style="fill:rgb(104,150,125)"/>
<polygon points="1024,724 1029,765 1182,765" style="fill:rgb(23,53,59)"/>
<polygon points="886,743 1029,765 1024,724" style="fill:rgb(35,50,62)"/>
<polygon points="910,97 849,196 982,208" style="fill:rgb(193,244,253)"/>
<polygon points="866,265 839,324 917,269" style="fill:rgb(225,253,253)"/>
<polygon points="803,81 849,196 910,97" style="fill:rgb(191,241,253)"/>
<polygon points="969,0 899,0 943,71" style="fill:rgb(213,247,253)"/>
<polygon points="2200,608 2283,609 2284,543" style="fill:rgb(54,98,98)"/>
<polygon points="2346,468 2356,387 2290,379" style="fill:rgb(24,83,102)"/>
<polygon points="1953,765 2283,609 2200,608" style="fill:rgb(44,56,65)"/>
<polygon points="702,213 839,324 866,265" style="fill:rgb(204,250,253)"/>
<polygon points="2507,181 2335,97 2320,167" style="fill:rgb(211,253,253)"/>
<polygon points="2320,167 2335,97 2193,93" style="fill:rgb(208,253,253)"/>
<polygon points="839,324 839,357 954,355" style="fill:rgb(202,243,251)"/>
<polygon points="773,537 876,536 763,523" style="fill:rgb(81,100,89)"/>
<polygon points="894,501 876,536 1001,529" style="fill:rgb(150,177,157)"/>
<polygon points="2346,468 2226,446 2284,543" style="fill:rgb(22,76,101)"/>
<polygon points="2338,295 2415,288 2320,167" style="fill:rgb(225,253,252)"/>
<polygon points="2356,387 2366,329 2318,366" style="fill:rgb(48,106,109)"/>
<polygon points="2337,523 2346,468 2284,543" style="fill:rgb(30,86,102)"/>
<polygon points="2394,300 2373,306 2366,329" style="fill:rgb(132,164,133)"/>
<polygon points="2394,300 2433,312 2425,303" style="fill:rgb(103,148,135)"/>
<polygon points="2366,329 2373,306 2338,295" style="fill:rgb(153,177,142)"/>
<polygon points="2338,571 2337,523 2284,543" style="fill:rgb(39,95,100)"/>
<polygon points="2415,288 2394,300 2425,303" style="fill:rgb(175,213,223)"/>
<polygon points="812,582 868,551 773,537" style="fill:rgb(39,51,58)"/>
<polygon points="876,536 868,551 1006,547" style="fill:rgb(67,84,77)"/>
<polygon points="2283,609 2338,571 2284,543" style="fill:rgb(51,96,96)"/>
<polygon points="2337,523 2362,543 2346,468" style="fill:rgb(26,85,102)"/>
<polygon points="2366,329 2356,387 2433,312" style="fill:rgb(45,104,108)"/>
<polygon points="2373,306 2394,300 2338,295" style="fill:rgb(174,195,163)"/>
<polygon points="790,384 806,409 839,357" style="fill:rgb(122,169,193)"/>
<polygon points="839,357 806,409 948,383" style="fill:rgb(116,163,181)"/>
<polygon points="790,377 839,357 839,324" style="fill:rgb(211,252,252)"/>
<polygon points="2338,571 2362,543 2337,523" style="fill:rgb(55,105,103)"/>
<polygon points="702,213 790,377 839,324" style="fill:rgb(208,252,253)"/>
<polygon points="812,582 876,663 868,551" style="fill:rgb(40,59,61)"/>
<polygon points="714,425 790,377 688,362" style="fill:rgb(214,253,252)"/>
<polygon points="868,551 876,536 773,537" style="fill:rgb(58,72,69)"/>
<polygon points="868,551 876,663 1006,547" style="fill:rgb(41,58,62)"/>
<polygon points="790,377 790,384 839,357" style="fill:rgb(173,226,250)"/>
<polygon points="2394,300 2415,288 2338,295" style="fill:rgb(206,233,235)"/>
<polygon points="2394,300 2366,329 2433,312" style="fill:rgb(96,142,124)"/>
<polygon points="806,53 803,81 910,97" style="fill:rgb(212,248,253)"/>
<polygon points="899,0 806,53 910,97" style="fill:rgb(245,252,252)"/>
<polygon points="2433,312 2504,356 2491,303" style="fill:rgb(35,100,111)"/>
<polygon points="2415,288 2507,181 2320,167" style="fill:rgb(220,253,253)"/>
<polygon points="2482,483 2356,387 2346,468" style="fill:rgb(17,75,100)"/>
<polygon points="2425,303 2491,303 2415,288" style="fill:rgb(174,224,241)"/>
<polygon points="876,536 894,501 763,523" style="fill:rgb(146,170,151)"/>
<polygon points="562,713 886,743 876,663" style="fill:rgb(25,54,55)"/>
<polygon points="876,663 886,743 1024,724" style="fill:rgb(29,51,58)"/>
<polygon points="2409,588 2405,556 2362,543" style="fill:rgb(39,95,97)"/>
<polygon points="2362,543 2405,556 2346,468" style="fill:rgb(9,50,83)"/>
<polygon points="2409,588 2362,543 2338,571" style="fill:rgb(52,100,98)"/>
<polygon points="2409,588 2338,571 2283,609" style="fill:rgb(53,73,76)"/>
<polygon points="763,523 894,501 806,409" style="fill:rgb(121,167,170)"/>
<polygon points="812,582 562,713 876,663" style="fill:rgb(36,67,61)"/>
<polygon points="763,523 806,409 714,425" style="fill:rgb(118,166,176)"/>
<polygon points="806,409 790,384 714,425" style="fill:rgb(124,174,191)"/>
<polygon points="2619,606 2409,588 2696,715" style="fill:rgb(45,61,64)"/>
<polygon points="2504,356 2433,312 2356,387" style="fill:rgb(27,94,104)"/>
<polygon points="714,425 790,384 790,377" style="fill:rgb(163,225,243)"/>
<polygon points="773,537 576,571 812,582" style="fill:rgb(40,48,57)"/>
<polygon points="2471,514 2346,468 2405,556" style="fill:rgb(5,40,81)"/>
<polygon points="2433,312 2491,303 2425,303" style="fill:rgb(77,134,150)"/>
<polygon points="702,213 866,265 849,196" style="fill:rgb(196,246,253)"/>
<polygon points="702,213 849,196 803,81" style="fill:rgb(189,242,253)"/>
<polygon points="687,42 702,213 803,81" style="fill:rgb(186,238,253)"/>
<polygon points="2475,563 2471,514 2405,556" style="fill:rgb(5,44,80)"/>
<polygon points="2471,514 2482,483 2346,468" style="fill:rgb(15,62,96)"/>
<polygon points="2517,410 2504,356 2356,387" style="fill:rgb(21,86,102)"/>
<polygon points="702,213 688,362 790,377" style="fill:rgb(206,251,253)"/>
<polygon points="2555,296 2507,181 2491,303" style="fill:rgb(227,253,252)"/>
<polygon points="2491,303 2507,181 2415,288" style="fill:rgb(226,253,252)"/>
<polygon points="899,0 725,0 806,53" style="fill:rgb(245,253,253)"/>
<polygon points="806,53 687,42 803,81" style="fill:rgb(209,244,253)"/>
<polygon points="2572,514 2475,563 2621,587" style="fill:rgb(52,102,102)"/>
<polygon points="2409,588 2475,563 2405,556" style="fill:rgb(45,97,97)"/>
<polygon points="2471,514 2572,514 2482,483" style="fill:rgb(22,74,96)"/>
<polygon points="2482,483 2517,410 2356,387" style="fill:rgb(18,71,99)"/>
<polygon points="2572,514 2517,410 2482,483" style="fill:rgb(21,66,96)"/>
<polygon points="2504,356 2527,317 2491,303" style="fill:rgb(34,99,113)"/>
<polygon points="2604,331 2527,317 2611,348" style="fill:rgb(45,106,136)"/>
<polygon points="2829,109 2511,99 2507,181" style="fill:rgb(209,253,253)"/>
<polygon points="2507,181 2511,99 2335,97" style="fill:rgb(207,253,253)"/>
<polygon points="2335,97 2511,99 2224,45" style="fill:rgb(202,251,254)"/>
<polygon points="2555,296 2531,311 2604,331" style="fill:rgb(202,240,251)"/>
<polygon points="2527,317 2531,311 2491,303" style="fill:rgb(60,133,178)"/>
<polygon points="725,0 687,42 806,53" style="fill:rgb(218,246,253)"/>
<polygon points="515,332 644,449 688,362" style="fill:rgb(211,253,253)"/>
<polygon points="2527,317 2504,356 2611,348" style="fill:rgb(29,92,106)"/>
<polygon points="2604,331 2531,311 2527,317" style="fill:rgb(60,130,188)"/>
<polygon points="2531,311 2555,296 2491,303" style="fill:rgb(197,238,249)"/>
<polygon points="533,294 688,362 702,213" style="fill:rgb(201,248,253)"/>
<polygon points="688,362 644,449 714,425" style="fill:rgb(216,252,253)"/>
<polygon points="714,425 635,479 763,523" style="fill:rgb(119,169,176)"/>
<polygon points="763,523 611,517 773,537" style="fill:rgb(90,124,115)"/>
<polygon points="611,517 635,479 541,504" style="fill:rgb(130,178,175)"/>
<polygon points="644,449 635,479 714,425" style="fill:rgb(173,213,224)"/>
<polygon points="725,0 651,0 687,42" style="fill:rgb(212,245,253)"/>
<polygon points="687,42 604,90 702,213" style="fill:rgb(182,236,253)"/>
<polygon points="2475,563 2572,514 2471,514" style="fill:rgb(34,84,98)"/>
<polygon points="2611,348 2504,356 2517,410" style="fill:rgb(24,81,103)"/>
<polygon points="2555,296 2826,225 2507,181" style="fill:rgb(227,253,253)"/>
<polygon points="541,504 635,479 644,449" style="fill:rgb(160,205,209)"/>
<polygon points="635,479 611,517 763,523" style="fill:rgb(114,164,164)"/>
<polygon points="651,0 604,90 687,42" style="fill:rgb(203,240,253)"/>
<polygon points="2671,408 2611,348 2517,410" style="fill:rgb(22,78,102)"/>
<polygon points="2604,331 2826,225 2555,296" style="fill:rgb(235,253,252)"/>
<polygon points="539,518 576,571 611,517" style="fill:rgb(52,66,69)"/>
<polygon points="611,517 576,571 773,537" style="fill:rgb(51,64,66)"/>
<polygon points="604,90 538,241 702,213" style="fill:rgb(185,239,253)"/>
<polygon points="2649,530 2637,505 2572,514" style="fill:rgb(23,74,99)"/>
<polygon points="2572,514 2637,505 2517,410" style="fill:rgb(21,65,95)"/>
<polygon points="2621,587 2475,563 2619,606" style="fill:rgb(58,90,89)"/>
<polygon points="538,241 533,294 702,213" style="fill:rgb(195,244,253)"/>
<polygon points="2619,606 2475,563 2409,588" style="fill:rgb(49,73,79)"/>
<polygon points="604,90 487,82 538,241" style="fill:rgb(181,234,253)"/>
<polygon points="651,0 570,0 604,90" style="fill:rgb(219,246,253)"/>
<polygon points="2696,715 2409,588 2283,609" style="fill:rgb(44,58,63)"/>
<polygon points="2621,587 2649,530 2572,514" style="fill:rgb(50,102,103)"/>
<polygon points="489,307 392,200 421,324" style="fill:rgb(239,253,252)"/>
<polygon points="538,241 521,275 533,294" style="fill:rgb(204,246,253)"/>
<polygon points="515,332 541,504 644,449" style="fill:rgb(216,252,253)"/>
<polygon points="515,332 688,362 533,294" style="fill:rgb(203,250,253)"/>
<polygon points="2748,523 2649,530 2783,593" style="fill:rgb(50,102,105)"/>
<polygon points="2637,505 2671,408 2517,410" style="fill:rgb(22,62,96)"/>
<polygon points="539,518 541,510 491,508" style="fill:rgb(113,154,150)"/>
<polygon points="541,504 541,510 611,517" style="fill:rgb(119,165,156)"/>
<polygon points="2747,409 2671,408 2748,523" style="fill:rgb(21,75,102)"/>
<polygon points="2611,348 2718,380 2604,331" style="fill:rgb(59,141,164)"/>
<polygon points="491,508 541,510 541,504" style="fill:rgb(148,191,202)"/>
<polygon points="541,510 539,518 611,517" style="fill:rgb(89,128,119)"/>
<polygon points="489,307 515,332 533,294" style="fill:rgb(208,250,253)"/>
<polygon points="570,0 517,63 604,90" style="fill:rgb(221,248,253)"/>
<polygon points="521,275 489,307 533,294" style="fill:rgb(223,252,252)"/>
<polygon points="489,307 521,275 392,200" style="fill:rgb(232,251,252)"/>
<polygon points="477,503 491,508 541,504" style="fill:rgb(186,232,245)"/>
<polygon points="473,523 530,613 539,518" style="fill:rgb(47,60,64)"/>
<polygon points="539,518 530,613 576,571" style="fill:rgb(41,58,60)"/>
<polygon points="576,571 562,713 812,582" style="fill:rgb(37,66,62)"/>
<polygon points="2718,380 2712,385 2742,389" style="fill:rgb(77,125,141)"/>
<polygon points="2742,389 2712,385 2747,409" style="fill:rgb(46,102,113)"/>
<polygon points="2671,408 2712,385 2611,348" style="fill:rgb(30,93,110)"/>
<polygon points="530,613 562,713 576,571" style="fill:rgb(28,65,60)"/>
<polygon points="886,743 0,765 1029,765" style="fill:rgb(35,47,57)"/>
<polygon points="2712,385 2671,408 2747,409" style="fill:rgb(30,93,109)"/>
<polygon points="2712,385 2718,380 2611,348" style="fill:rgb(58,114,135)"/>
<polygon points="570,0 495,62 517,63" style="fill:rgb(242,253,252)"/>
<polygon points="517,63 487,82 604,90" style="fill:rgb(196,238,253)"/>
<polygon points="477,503 541,504 515,332" style="fill:rgb(216,252,253)"/>
<polygon points="530,613 257,614 562,713" style="fill:rgb(34,59,57)"/>
<polygon points="495,62 487,82 517,63" style="fill:rgb(223,250,254)"/>
<polygon points="473,523 477,503 457,492" style="fill:rgb(151,201,214)"/>
<polygon points="457,492 477,503 515,332" style="fill:rgb(214,253,253)"/>
<polygon points="491,508 473,523 539,518" style="fill:rgb(93,128,125)"/>
<polygon points="2671,408 2637,505 2748,523" style="fill:rgb(20,69,98)"/>
<polygon points="2718,380 2826,225 2604,331" style="fill:rgb(237,253,253)"/>
<polygon points="457,492 515,332 421,324" style="fill:rgb(208,252,253)"/>
<polygon points="477,503 473,523 491,508" style="fill:rgb(116,162,171)"/>
<polygon points="2748,523 2637,505 2649,530" style="fill:rgb(33,83,103)"/>
<polygon points="2761,386 2750,379 2742,389" style="fill:rgb(149,179,199)"/>
<polygon points="2742,389 2750,379 2718,380" style="fill:rgb(146,181,204)"/>
<polygon points="421,324 515,332 489,307" style="fill:rgb(206,249,252)"/>
<polygon points="473,523 257,614 530,613" style="fill:rgb(39,62,60)"/>
<polygon points="2761,386 2756,372 2750,379" style="fill:rgb(231,247,247)"/>
<polygon points="2750,379 2756,372 2718,380" style="fill:rgb(235,249,254)"/>
<polygon points="2747,409 2761,386 2742,389" style="fill:rgb(66,112,124)"/>
<polygon points="2780,559 2748,523 2783,593" style="fill:rgb(47,102,106)"/>
<polygon points="2747,409 2868,424 2761,386" style="fill:rgb(58,113,121)"/>
<polygon points="392,200 521,275 538,241" style="fill:rgb(203,245,253)"/>
<polygon points="1953,765 2696,715 2283,609" style="fill:rgb(46,54,61)"/>
<polygon points="2783,593 2649,530 2621,587" style="fill:rgb(53,99,100)"/>
<polygon points="365,122 392,200 487,82" style="fill:rgb(184,235,253)"/>
<polygon points="487,82 392,200 538,241" style="fill:rgb(184,237,253)"/>
<polygon points="421,324 375,476 457,492" style="fill:rgb(212,252,253)"/>
<polygon points="2783,593 2621,587 2619,606" style="fill:rgb(55,69,74)"/>
<polygon points="2865,461 2868,424 2747,409" style="fill:rgb(33,98,112)"/>
<polygon points="2696,715 2783,593 2619,606" style="fill:rgb(46,57,62)"/>
<polygon points="2756,372 2826,225 2718,380" style="fill:rgb(241,253,252)"/>
<polygon points="2839,274 2826,225 2756,372" style="fill:rgb(239,253,252)"/>
<polygon points="2839,274 2756,372 2875,413" style="fill:rgb(246,253,252)"/>
<polygon points="2756,372 2761,386 2875,413" style="fill:rgb(213,235,245)"/>
<polygon points="307,482 375,476 276,301" style="fill:rgb(208,251,253)"/>
<polygon points="457,492 370,485 473,523" style="fill:rgb(65,133,163)"/>
<polygon points="2747,409 2748,523 2865,461" style="fill:rgb(27,86,105)"/>
<polygon points="307,482 370,485 375,476" style="fill:rgb(167,234,247)"/>
<polygon points="375,476 370,485 457,492" style="fill:rgb(141,212,235)"/>
<polygon points="336,92 365,122 487,82" style="fill:rgb(206,243,253)"/>
<polygon points="276,301 375,476 421,324" style="fill:rgb(208,250,253)"/>
<polygon points="336,92 487,82 495,62" style="fill:rgb(238,252,252)"/>
<polygon points="2879,172 2829,109 2826,225" style="fill:rgb(220,253,252)"/>
<polygon points="2826,225 2829,109 2507,181" style="fill:rgb(218,253,253)"/>
<polygon points="2511,99 2869,64 2224,45" style="fill:rgb(200,250,253)"/>
<polygon points="297,0 336,92 495,62" style="fill:rgb(250,252,252)"/>
<polygon points="268,242 276,301 392,200" style="fill:rgb(244,253,252)"/>
<polygon points="2865,461 2748,523 2780,559" style="fill:rgb(46,101,107)"/>
<polygon points="2839,274 2879,172 2826,225" style="fill:rgb(230,253,252)"/>
<polygon points="2976,602 2865,461 2780,559" style="fill:rgb(46,100,104)"/>
<polygon points="2877,420 2875,413 2868,424" style="fill:rgb(102,148,151)"/>
<polygon points="2868,424 2875,413 2761,386" style="fill:rgb(107,152,161)"/>
<polygon points="2878,431 2877,420 2868,424" style="fill:rgb(81,128,132)"/>
<polygon points="3095,249 2879,172 2839,274" style="fill:rgb(234,253,252)"/>
<polygon points="2903,131 2879,172 3095,169" style="fill:rgb(221,253,253)"/>
<polygon points="2865,461 2878,431 2868,424" style="fill:rgb(44,103,115)"/>
<polygon points="3095,249 2839,274 2875,413" style="fill:rgb(247,253,252)"/>
<polygon points="2903,131 2869,64 2829,109" style="fill:rgb(209,253,253)"/>
<polygon points="2829,109 2869,64 2511,99" style="fill:rgb(205,252,253)"/>
<polygon points="2224,45 3095,0 1756,0" style="fill:rgb(194,245,253)"/>
<polygon points="295,489 307,482 276,301" style="fill:rgb(203,249,252)"/>
<polygon points="370,485 311,518 473,523" style="fill:rgb(51,107,130)"/>
<polygon points="306,494 311,518 370,485" style="fill:rgb(49,121,154)"/>
<polygon points="295,489 306,494 307,482" style="fill:rgb(72,151,187)"/>
<polygon points="307,482 306,494 370,485" style="fill:rgb(73,152,191)"/>
<polygon points="3020,450 2875,413 2877,420" style="fill:rgb(159,201,211)"/>
<polygon points="2879,172 2903,131 2829,109" style="fill:rgb(215,253,253)"/>
<polygon points="276,301 421,324 392,200" style="fill:rgb(247,252,252)"/>
<polygon points="306,494 281,510 311,518" style="fill:rgb(70,130,148)"/>
<polygon points="279,184 392,200 365,122" style="fill:rgb(224,248,252)"/>
<polygon points="289,95 279,184 365,122" style="fill:rgb(190,236,253)"/>
<polygon points="297,0 289,95 336,92" style="fill:rgb(242,253,252)"/>
<polygon points="336,92 289,95 365,122" style="fill:rgb(205,241,253)"/>
<polygon points="201,285 268,242 201,188" style="fill:rgb(187,237,253)"/>
<polygon points="279,184 268,242 392,200" style="fill:rgb(239,252,252)"/>
<polygon points="258,527 281,510 237,502" style="fill:rgb(77,126,132)"/>
<polygon points="570,0 297,0 495,62" style="fill:rgb(251,252,252)"/>
<polygon points="201,188 268,242 279,184" style="fill:rgb(189,237,253)"/>
<polygon points="281,510 295,489 237,502" style="fill:rgb(162,214,231)"/>
<polygon points="295,489 281,510 306,494" style="fill:rgb(80,144,185)"/>
<polygon points="311,518 257,614 473,523" style="fill:rgb(47,63,66)"/>
<polygon points="237,502 295,489 276,301" style="fill:rgb(206,250,254)"/>
<polygon points="281,510 258,527 311,518" style="fill:rgb(75,116,110)"/>
<polygon points="182,490 237,502 276,301" style="fill:rgb(204,250,253)"/>
<polygon points="216,517 257,614 258,527" style="fill:rgb(47,67,68)"/>
<polygon points="258,527 257,614 311,518" style="fill:rgb(48,68,67)"/>
<polygon points="201,188 279,184 200,95" style="fill:rgb(178,230,253)"/>
<polygon points="268,242 201,285 276,301" style="fill:rgb(218,248,253)"/>
<polygon points="200,95 279,184 289,95" style="fill:rgb(188,233,253)"/>
<polygon points="182,490 216,517 237,502" style="fill:rgb(109,171,195)"/>
<polygon points="237,502 216,517 258,527" style="fill:rgb(88,142,146)"/>
<polygon points="108,492 182,490 104,485" style="fill:rgb(90,175,214)"/>
<polygon points="203,42 200,95 289,95" style="fill:rgb(219,244,253)"/>
<polygon points="3020,459 3020,450 2878,431" style="fill:rgb(86,129,135)"/>
<polygon points="2878,431 3020,450 2877,420" style="fill:rgb(97,139,144)"/>
<polygon points="2783,593 2976,602 2780,559" style="fill:rgb(61,102,102)"/>
<polygon points="2975,632 2976,602 2783,593" style="fill:rgb(51,71,73)"/>
<polygon points="297,0 203,42 289,95" style="fill:rgb(229,247,253)"/>
<polygon points="2696,715 2975,632 2783,593" style="fill:rgb(46,60,63)"/>
<polygon points="201,285 182,490 276,301" style="fill:rgb(199,246,253)"/>
<polygon points="216,517 62,594 257,614" style="fill:rgb(40,60,61)"/>
<polygon points="14,286 201,285 201,188" style="fill:rgb(194,239,253)"/>
<polygon points="2878,431 2865,461 3019,473" style="fill:rgb(43,105,115)"/>
<polygon points="3020,459 2878,431 3019,473" style="fill:rgb(66,119,124)"/>
<polygon points="3019,473 2865,461 2976,602" style="fill:rgb(47,104,110)"/>
<polygon points="3020,459 3019,473 3095,470" style="fill:rgb(75,126,130)"/>
<polygon points="168,22 172,127 200,95" style="fill:rgb(192,232,253)"/>
<polygon points="200,95 172,127 201,188" style="fill:rgb(192,234,253)"/>
<polygon points="297,0 168,22 203,42" style="fill:rgb(216,238,252)"/>
<polygon points="203,42 168,22 200,95" style="fill:rgb(204,237,253)"/>
<polygon points="104,485 182,490 201,285" style="fill:rgb(199,248,253)"/>
<polygon points="3037,734 3011,695 2696,715" style="fill:rgb(45,53,58)"/>
<polygon points="2696,715 3011,695 2975,632" style="fill:rgb(43,57,60)"/>
<polygon points="3095,579 3095,530 2976,602" style="fill:rgb(54,105,105)"/>
<polygon points="3095,459 3020,450 3020,459" style="fill:rgb(111,147,159)"/>
<polygon points="297,0 136,0 168,22" style="fill:rgb(215,237,253)"/>
<polygon points="52,59 58,121 172,127" style="fill:rgb(209,241,253)"/>
<polygon points="3020,450 3095,249 2875,413" style="fill:rgb(250,252,252)"/>
<polygon points="2903,131 3095,81 2869,64" style="fill:rgb(209,253,253)"/>
<polygon points="3095,459 3095,249 3020,450" style="fill:rgb(249,251,251)"/>
<polygon points="3095,459 3020,459 3095,470" style="fill:rgb(93,136,144)"/>
<polygon points="3095,249 3095,169 2879,172" style="fill:rgb(230,253,252)"/>
<polygon points="104,485 201,285 80,476" style="fill:rgb(199,247,253)"/>
<polygon points="182,490 103,504 216,517" style="fill:rgb(44,106,130)"/>
<polygon points="3095,765 3037,734 2696,715" style="fill:rgb(40,45,54)"/>
<polygon points="3095,470 3019,473 3095,530" style="fill:rgb(53,111,116)"/>
<polygon points="80,476 201,285 14,286" style="fill:rgb(198,243,253)"/>
<polygon points="3019,473 2976,602 3095,530" style="fill:rgb(46,103,108)"/>
<polygon points="2976,602 3095,602 3095,579" style="fill:rgb(60,93,89)"/>
<polygon points="104,485 103,504 108,492" style="fill:rgb(48,132,176)"/>
<polygon points="108,492 103,504 182,490" style="fill:rgb(38,122,156)"/>
<polygon points="3095,169 3095,81 2903,131" style="fill:rgb(217,253,253)"/>
<polygon points="2976,602 2975,632 3095,602" style="fill:rgb(51,67,70)"/>
<polygon points="3095,81 3095,0 2869,64" style="fill:rgb(201,250,253)"/>
<polygon points="2869,64 3095,0 2224,45" style="fill:rgb(198,247,253)"/>
<polygon points="3095,602 2975,632 3011,695" style="fill:rgb(46,59,62)"/>
<polygon points="58,121 201,188 172,127" style="fill:rgb(244,252,252)"/>
<polygon points="104,485 74,498 103,504" style="fill:rgb(43,125,173)"/>
<polygon points="3037,734 3095,602 3011,695" style="fill:rgb(44,52,56)"/>
<polygon points="65,514 74,498 0,500" style="fill:rgb(111,173,194)"/>
<polygon points="80,476 74,498 104,485" style="fill:rgb(136,204,232)"/>
<polygon points="103,504 77,532 216,517" style="fill:rgb(87,129,123)"/>
<polygon points="74,498 77,532 103,504" style="fill:rgb(101,151,162)"/>
<polygon points="52,59 172,127 168,22" style="fill:rgb(179,226,253)"/>
<polygon points="0,500 74,498 80,476" style="fill:rgb(185,236,249)"/>
<polygon points="74,498 65,514 77,532" style="fill:rgb(116,161,164)"/>
<polygon points="136,0 52,59 168,22" style="fill:rgb(214,241,253)"/>
<polygon points="0,250 14,286 201,188" style="fill:rgb(230,250,252)"/>
<polygon points="62,594 216,517 77,532" style="fill:rgb(44,62,65)"/>
<polygon points="62,594 93,721 257,614" style="fill:rgb(31,53,55)"/>
<polygon points="257,614 93,721 562,713" style="fill:rgb(36,59,57)"/>
<polygon points="562,713 0,765 886,743" style="fill:rgb(34,46,54)"/>
<polygon points="0,530 77,532 65,514" style="fill:rgb(92,126,121)"/>
<polygon points="0,530 62,594 77,532" style="fill:rgb(44,62,64)"/>
<polygon points="1953,765 3095,765 2696,715" style="fill:rgb(40,44,55)"/>
<polygon points="3037,734 3095,765 3095,602" style="fill:rgb(40,48,53)"/>
<polygon points="0,284 14,286 0,250" style="fill:rgb(231,249,253)"/>
<polygon points="0,250 201,188 58,121" style="fill:rgb(249,252,252)"/>
<polygon points="14,286 0,500 80,476" style="fill:rgb(197,244,253)"/>
<polygon points="0,0 0,250 58,121" style="fill:rgb(247,252,252)"/>
<polygon points="0,284 0,500 14,286" style="fill:rgb(192,240,253)"/>
<polygon points="62,594 0,765 93,721" style="fill:rgb(32,49,55)"/>
<polygon points="0,500 0,530 65,514" style="fill:rgb(129,171,167)"/>
<polygon points="136,0 0,0 52,59" style="fill:rgb(243,252,252)"/>
<polygon points="52,59 0,0 58,121" style="fill:rgb(240,253,253)"/>
<polygon points="0,530 0,765 62,594" style="fill:rgb(35,53,56)"/>
<polygon points="93,721 0,765 562,713" style="fill:rgb(32,48,53)"/>
</svg>